<svg xmlns="http://www.w3.org/2000/svg" width="720" height="1280" viewBox="0 0 720 1280">
  <defs>
    <linearGradient id="bg" x1="0%" y1="0%" x2="100%" y2="100%">
      <stop offset="0%" style="stop-color:#0f172a"/>
      <stop offset="100%" style="stop-color:#1e293b"/>
    </linearGradient>
    <linearGradient id="accent" x1="0%" y1="0%" x2="100%" y2="100%">
      <stop offset="0%" style="stop-color:#14b8a6"/>
      <stop offset="100%" style="stop-color:#2563eb"/>
    </linearGradient>
  </defs>
  <rect width="720" height="1280" fill="url(#bg)"/>
  <!-- Status bar -->
  <rect x="0" y="0" width="720" height="44" fill="#1e293b"/>
  <circle cx="600" cy="22" r="3" fill="#14b8a6"/>
  <!-- Top nav mockup -->
  <rect x="0" y="44" width="720" height="56" fill="#1e293b" opacity="0.9"/>
  <rect x="720" y="100" width="720" height="1" fill="#334155" opacity="0.5"/>
  <!-- Logo -->
  <rect x="24" y="56" width="34" height="34" rx="10" fill="url(#accent)"/>
  <text x="41" y="77" font-family="system-ui" font-size="15" font-weight="900" fill="#fff" text-anchor="middle">B</text>
  <text x="68" y="77" font-family="system-ui" font-size="14" font-weight="900" fill="#fff">BIADOXID</text>
  <!-- Menu icon -->
  <rect x="670" y="62" width="24" height="20" rx="3" fill="#334155"/>
  <!-- Hero content -->
  <rect x="32" y="140" width="400" height="14" rx="7" fill="#475569"/>
  <rect x="32" y="168" width="500" height="14" rx="7" fill="#475569"/>
  <rect x="32" y="196" width="360" height="14" rx="7" fill="#475569"/>
  <rect x="32" y="235" width="300" height="44" rx="12" fill="url(#accent)"/>
  <!-- Hero image placeholder -->
  <rect x="32" y="310" width="656" height="280" rx="20" fill="#1e293b" stroke="#334155" stroke-width="2"/>
  <!-- Feature card 1 -->
  <rect x="32" y="620" width="656" height="180" rx="20" fill="#1e293b" stroke="#334155" stroke-width="1"/>
  <rect x="62" y="648" width="48" height="48" rx="12" fill="url(#accent)" opacity="0.8"/>
  <rect x="62" y="710" width="250" height="10" rx="4" fill="#475569"/>
  <rect x="62" y="730" width="580" height="8" rx="4" fill="#334155"/>
  <rect x="62" y="748" width="500" height="8" rx="4" fill="#334155"/>
  <!-- Feature card 2 -->
  <rect x="32" y="820" width="656" height="180" rx="20" fill="#1e293b" stroke="#334155" stroke-width="1"/>
  <rect x="62" y="848" width="48" height="48" rx="12" fill="url(#accent)" opacity="0.8"/>
  <rect x="62" y="910" width="250" height="10" rx="4" fill="#475569"/>
  <rect x="62" y="930" width="580" height="8" rx="4" fill="#334155"/>
  <rect x="62" y="948" width="500" height="8" rx="4" fill="#334155"/>
  <!-- Feature card 3 -->
  <rect x="32" y="1020" width="656" height="180" rx="20" fill="#1e293b" stroke="#334155" stroke-width="1"/>
  <rect x="62" y="1048" width="48" height="48" rx="12" fill="url(#accent)" opacity="0.8"/>
  <rect x="62" y="1110" width="250" height="10" rx="4" fill="#475569"/>
  <rect x="62" y="1130" width="580" height="8" rx="4" fill="#334155"/>
  <rect x="62" y="1148" width="500" height="8" rx="4" fill="#334155"/>
  <!-- Bottom navigation -->
  <rect x="0" y="1230" width="720" height="50" fill="#0f172a" stroke="#334155" stroke-width="1"/>
  <rect x="100" y="1245" width="40" height="20" rx="4" fill="#14b8a6" opacity="0.3"/>
  <rect x="250" y="1245" width="40" height="20" rx="4" fill="#334155"/>
  <rect x="400" y="1245" width="40" height="20" rx="4" fill="#334155"/>
  <rect x="550" y="1245" width="40" height="20" rx="4" fill="#334155"/>
  <!-- PWA indicator -->
  <rect x="32" y="8" width="100" height="28" rx="6" fill="#14b8a6" opacity="0.2"/>
  <text x="42" y="27" font-family="system-ui" font-size="9" fill="#14b8a6" font-weight="bold">PWA INSTALADA</text>
</svg>
